<svg version="1.1" id="Layer_1" xmlns="http://www.w3.org/2000/svg" xmlns:xlink="http://www.w3.org/1999/xlink" x="0px" y="0px"
	 width="100%" viewBox="0 0 1878 521" enable-background="new 0 0 1878 521" xml:space="preserve">
<path fill="#FFFFFF" opacity="1.000000" stroke="none" 
	d="
M1380.000000,522.000000 
	C920.000000,522.000000 460.500000,522.000000 1.000000,522.000000 
	C1.000000,348.333344 1.000000,174.666672 1.000000,1.000000 
	C627.000000,1.000000 1253.000000,1.000000 1879.000000,1.000000 
	C1879.000000,174.666672 1879.000000,348.333344 1879.000000,522.000000 
	C1712.833374,522.000000 1546.666626,522.000000 1380.000000,522.000000 
M305.901520,165.540741 
	C305.723541,165.573380 305.545563,165.606033 305.367584,165.638687 
	C305.396973,165.752350 305.423065,165.962692 305.456207,165.963821 
	C305.657074,165.970581 305.859528,165.929611 305.684692,166.607330 
	C310.594574,177.071915 314.039307,187.975418 314.814362,199.551987 
	C318.690002,257.438721 270.604919,302.707031 213.200836,295.019836 
	C163.908707,288.418976 127.321800,240.791931 138.573135,188.320511 
	C150.320129,133.537582 206.780075,103.778442 259.006165,123.950996 
	C266.771790,126.950508 269.449982,126.994606 278.218750,124.067238 
	C248.461227,106.746048 217.849930,103.683556 186.639893,117.375450 
	C123.922569,144.889648 108.344719,225.422333 155.713181,274.902618 
	C191.553452,312.340698 252.835648,314.586731 290.994843,279.534943 
	C318.018921,254.711456 327.679535,223.707291 321.723175,187.783783 
	C320.133484,178.196182 318.314972,168.131607 305.901520,165.540741 
M252.189774,145.430542 
	C259.885315,150.218796 267.580841,155.007050 275.299530,159.809723 
	C276.467468,157.007263 277.091583,153.832169 273.214417,150.698044 
	C255.957825,136.748520 236.318253,130.884262 214.524689,134.478424 
	C175.990784,140.833374 151.168472,172.300629 152.818314,211.644089 
	C154.665726,255.698669 199.144318,288.926117 242.002716,278.268677 
	C281.415894,268.467957 304.595032,233.290497 297.845551,193.090881 
	C296.225555,183.442383 292.717529,174.374680 286.812775,166.527817 
	C282.637543,168.515900 278.907898,170.291824 274.442871,171.979813 
	C274.196808,171.959854 273.950775,171.939896 273.658691,171.013596 
	C273.780701,169.750839 273.902740,168.488068 274.063995,166.818985 
	C270.884796,166.818985 268.044067,167.104965 265.304413,166.702560 
	C263.859192,166.490280 262.095245,165.386414 261.326019,164.154037 
	C257.654358,158.271667 254.274338,152.207260 251.164246,145.760971 
	C251.268158,145.597015 251.372070,145.433075 252.189774,145.430542 
M1285.845581,187.342621 
	C1285.172729,192.607254 1284.154297,197.854095 1283.882324,203.139359 
	C1281.893555,241.784332 1306.426392,273.114380 1344.503418,280.270691 
	C1384.517212,287.790955 1425.023926,264.563751 1432.561523,221.466888 
	C1443.046631,161.515793 1393.157593,119.948486 1338.552734,133.841705 
	C1311.076904,140.832428 1293.534424,159.018799 1285.845581,187.342621 
M621.841003,219.634995 
	C623.752075,226.143723 624.922852,232.988159 627.696838,239.105606 
	C643.349670,273.625183 681.314087,288.507202 716.700623,278.937164 
	C762.948914,266.429657 779.243774,220.712204 767.433777,182.474625 
	C758.732300,154.301544 738.818359,137.685379 710.123596,132.507004 
	C659.461914,123.364365 613.569153,161.976486 621.841003,219.634995 
M920.018921,226.639755 
	C917.239685,215.109619 909.835693,207.393463 899.459656,202.417480 
	C894.839417,200.201813 889.875122,198.681747 885.017883,196.986832 
	C874.690735,193.383255 864.197083,190.211197 854.038208,186.189133 
	C848.396973,183.955673 845.361267,179.051834 845.566101,172.685623 
	C845.787964,165.792328 848.718933,160.640121 855.194946,157.640411 
	C869.961853,150.800323 885.072571,157.766724 889.965637,173.866638 
	C899.844238,173.866638 909.755615,173.866638 919.689514,173.866638 
	C918.858582,157.277069 911.701477,144.507721 896.961548,137.497498 
	C877.013611,128.010391 856.465759,128.137604 837.046509,138.947128 
	C815.229797,151.091217 810.402222,182.390976 826.806641,200.167480 
	C833.902039,207.856445 843.408142,210.893097 852.907654,213.997131 
	C863.152344,217.344696 873.739014,219.926727 883.540588,224.275940 
	C894.993225,229.357803 896.553711,243.861282 887.382324,251.980835 
	C873.501953,264.269318 850.413940,257.036316 846.407288,239.153137 
	C846.205383,238.251785 845.853760,237.383957 845.572266,236.501694 
	C836.426636,236.501694 827.599121,236.496201 818.771606,236.516922 
	C818.298584,236.518051 817.826111,236.739655 817.379395,236.852066 
	C815.842957,249.820831 822.053650,263.128265 833.630310,271.217773 
	C848.099792,281.328674 864.374939,283.403656 881.308777,280.770386 
	C908.904602,276.479126 925.831299,252.963074 920.018921,226.639755 
M1049.993164,236.894028 
	C1050.595825,244.818970 1047.549805,250.870651 1040.514526,254.639511 
	C1024.338867,263.304840 1007.284363,255.677383 1003.145264,238.021591 
	C1003.036133,237.556000 1002.809021,237.118042 1002.656006,236.717194 
	C993.104126,236.717194 983.650513,236.717194 974.051331,236.717194 
	C973.516052,244.437393 974.950928,251.509827 978.717468,257.988800 
	C987.550415,273.182953 1001.794189,279.375122 1018.417053,281.169861 
	C1036.762207,283.150574 1053.564941,279.738495 1066.951416,265.887726 
	C1082.931152,249.353745 1084.058716,215.429749 1056.706421,202.554459 
	C1051.923950,200.303207 1046.825195,198.700439 1041.818237,196.953995 
	C1031.658813,193.410370 1021.323730,190.323074 1011.331665,186.364670 
	C1005.075256,183.886139 1001.996460,178.608719 1002.561646,171.593307 
	C1003.162292,164.137863 1006.978271,158.977905 1014.091736,156.935471 
	C1030.044556,152.355057 1044.450684,158.498505 1046.867432,173.879120 
	C1056.776367,173.879120 1066.694824,173.879120 1076.662598,173.879120 
	C1075.448364,153.774216 1065.212524,140.569016 1046.660156,134.366211 
	C1032.276367,129.557098 1017.507690,129.638000 1003.066284,134.739990 
	C984.498413,141.299774 974.238098,155.404480 974.157898,174.018433 
	C974.079224,192.270844 982.851929,204.250702 1002.240479,211.230087 
	C1013.314880,215.216583 1024.764404,218.150818 1035.900879,221.978561 
	C1042.692017,224.312790 1048.522217,228.125153 1049.993164,236.894028 
M1627.831665,225.499924 
	C1627.831665,243.604111 1627.831665,261.708282 1627.831665,279.931763 
	C1659.588135,279.931763 1690.830811,279.931763 1722.133789,279.931763 
	C1722.133789,272.151062 1722.133789,264.612885 1722.133789,256.598816 
	C1699.855957,256.598816 1677.953979,256.598816 1656.214600,256.598816 
	C1656.214600,243.210007 1656.214600,230.310120 1656.214600,217.028290 
	C1676.336304,217.028290 1696.084473,217.028290 1715.817139,217.028290 
	C1715.817139,209.085327 1715.817139,201.539032 1715.817139,193.633789 
	C1695.706665,193.633789 1675.945190,193.633789 1656.133057,193.633789 
	C1656.133057,181.023026 1656.133057,168.784180 1656.133057,156.079727 
	C1678.323730,156.079727 1700.224854,156.079727 1722.290649,156.079727 
	C1722.290649,148.171432 1722.290649,140.733292 1722.290649,133.192215 
	C1690.705322,133.192215 1659.343872,133.192215 1627.831665,133.192215 
	C1627.831665,163.868439 1627.831665,194.184174 1627.831665,225.499924 
M570.081299,197.523956 
	C579.527283,177.235703 574.073059,154.358032 556.730530,142.375687 
	C546.517700,135.319397 534.868652,133.023529 522.667603,133.002304 
	C506.684204,132.974487 490.700745,132.988480 474.717316,133.007401 
	C473.283356,133.009094 471.849609,133.178314 470.414551,133.269806 
	C470.414551,182.338745 470.414551,231.043869 470.414551,279.852051 
	C479.707947,279.852051 488.741974,279.852051 498.236603,279.852051 
	C498.236603,260.487885 498.236603,241.439896 498.236603,222.004364 
	C508.501129,222.004364 518.326538,222.446899 528.097778,221.907791 
	C545.789795,220.931656 560.779541,214.686096 570.081299,197.523956 
M1131.158325,189.499954 
	C1131.158325,219.584457 1131.158325,249.668976 1131.158325,279.851044 
	C1140.709961,279.851044 1149.743896,279.851044 1159.238037,279.851044 
	C1159.238037,260.486206 1159.238037,241.438568 1159.238037,222.171860 
	C1167.174316,222.171860 1174.673462,222.561844 1182.113159,222.063171 
	C1189.691284,221.555237 1197.496460,221.140366 1204.707764,219.010529 
	C1241.194580,208.234314 1242.266602,165.409683 1223.789795,147.545670 
	C1212.660767,136.785843 1199.035034,133.177124 1184.160645,133.031799 
	C1167.846191,132.872391 1151.528809,132.988876 1135.212769,133.008347 
	C1133.944946,133.009857 1132.677368,133.194199 1131.158325,133.313248 
	C1131.158325,151.923691 1131.158325,170.211823 1131.158325,189.499954 
M1510.002563,213.500000 
	C1510.002563,186.754440 1510.002563,160.008881 1510.002563,133.374802 
	C1500.411255,133.374802 1491.369141,133.374802 1482.474731,133.374802 
	C1482.474731,182.467224 1482.474731,231.181534 1482.474731,279.988739 
	C1513.706299,279.988739 1544.623779,279.988739 1575.696167,279.988739 
	C1575.696167,272.268066 1575.696167,264.731232 1575.696167,256.799866 
	C1553.665894,256.799866 1531.939697,256.799866 1510.002563,256.799866 
	C1510.002563,242.435013 1510.002563,228.467514 1510.002563,213.500000 
M1033.861694,359.607025 
	C1027.986084,357.428497 1022.231018,354.804108 1016.206543,353.177094 
	C1007.400818,350.798920 998.336243,349.387482 989.508667,347.079437 
	C983.765442,345.577789 980.832153,341.151459 980.326782,335.298340 
	C979.838440,329.641815 982.025574,324.897827 986.949158,322.268982 
	C990.812805,320.206055 995.214172,318.494690 999.524597,318.044861 
	C1013.403748,316.596436 1026.206177,320.065948 1037.703979,328.107147 
	C1038.281250,328.510803 1039.069214,328.612946 1040.010132,328.943848 
	C1040.010132,324.209290 1040.227661,319.862030 1039.881836,315.560028 
	C1039.773560,314.212952 1038.418945,312.306641 1037.174805,311.810730 
	C1022.325989,305.892365 1006.903931,303.730072 991.239990,307.238129 
	C979.908875,309.775818 970.283997,315.555634 966.955505,327.703308 
	C962.514099,343.912720 970.986389,357.392761 988.275391,361.815735 
	C998.876770,364.527863 1009.726440,366.274536 1020.314880,369.030396 
	C1032.390869,372.173401 1032.075562,387.937561 1024.630005,392.931122 
	C1020.246033,395.871307 1014.847229,398.139221 1009.647766,398.863251 
	C994.648621,400.951843 981.070496,396.462952 968.768311,387.845306 
	C967.776184,387.150299 966.671082,386.616577 965.151245,385.737732 
	C965.151245,390.955444 964.872803,395.460419 965.296448,399.898376 
	C965.452759,401.535522 966.957947,403.945068 968.371338,404.409576 
	C975.600342,406.785095 982.886902,409.453033 990.365723,410.495483 
	C1002.936096,412.247711 1015.517334,412.236725 1027.398926,406.190216 
	C1046.173706,396.635712 1049.960571,372.548950 1033.861694,359.607025 
M568.880676,409.845093 
	C569.942810,408.619812 571.449646,407.563995 571.992065,406.140656 
	C574.709900,399.007874 577.351501,391.834320 579.640747,384.555847 
	C580.528564,381.732971 581.921814,381.094360 584.634766,381.123260 
	C596.789246,381.252655 608.948120,381.304260 621.100220,381.089996 
	C624.063660,381.037781 625.174438,382.200684 625.978516,384.705292 
	C627.448242,389.283875 629.141541,393.790680 630.743958,398.326599 
	C635.033813,410.469635 635.034363,410.471222 647.853455,409.808685 
	C648.164246,409.792664 648.466797,409.617188 649.233826,409.364105 
	C648.670715,407.678223 648.146790,405.980835 647.540283,404.313507 
	C637.393005,376.418274 627.225525,348.530334 617.084412,320.632874 
	C612.248474,307.329346 612.268677,307.446991 597.985535,307.371338 
	C594.693237,307.353912 593.408447,308.554779 592.362793,311.453247 
	C580.983154,342.996338 569.474731,374.492981 558.024353,406.010651 
	C557.610352,407.150146 557.433044,408.375671 557.075623,409.848480 
	C561.025391,409.848480 564.515015,409.848480 568.880676,409.845093 
M730.671326,372.049408 
	C726.118469,384.500885 721.565552,396.952393 716.849976,409.848877 
	C719.925354,409.848877 722.448364,409.549683 724.872437,409.912018 
	C729.698547,410.633392 731.822815,408.655457 733.168640,404.025665 
	C735.421204,396.276489 738.476746,388.760773 741.141846,381.294067 
	C755.998352,381.294067 770.313538,381.294067 784.843689,381.294067 
	C787.860107,389.764191 790.794739,398.228607 793.945007,406.612000 
	C794.422363,407.882324 795.827026,409.595032 796.932251,409.696808 
	C800.964539,410.068146 805.051636,409.843597 809.556763,409.843597 
	C808.834534,407.535950 808.407104,405.949554 807.846558,404.411713 
	C797.666016,376.481659 787.484009,348.552094 777.260803,320.637665 
	C775.675537,316.309082 775.026062,310.388275 771.872803,308.231445 
	C768.657166,306.031799 762.872498,307.759064 758.241150,307.399353 
	C754.999268,307.147522 753.715637,308.413483 752.653320,311.403473 
	C745.542480,331.417999 738.202087,351.350952 730.671326,372.049408 
M552.539551,391.769592 
	C552.539551,389.920166 552.539551,388.070740 552.539551,386.929474 
	C545.164978,390.587311 538.556396,395.118042 531.247864,397.256165 
	C509.013977,403.760742 488.982635,395.904907 483.493988,371.182861 
	C481.179749,360.758911 481.646759,350.291443 485.085846,340.177673 
	C489.271515,327.868286 497.644073,319.963531 510.810913,318.043915 
	C524.536804,316.042786 536.801697,319.810852 547.769409,328.135590 
	C549.113403,329.155762 550.503906,330.114685 552.538086,331.581787 
	C552.538086,325.996002 552.765015,321.509796 552.403687,317.071442 
	C552.291199,315.689575 550.870850,313.854675 549.565918,313.218536 
	C539.747253,308.432159 529.374268,305.847656 518.381470,305.619232 
	C493.145935,305.094879 474.642456,318.963623 469.414154,342.923584 
	C467.047791,353.767975 467.097412,364.746490 469.693939,375.603790 
	C474.280487,394.782196 485.883820,406.785034 505.592773,410.367310 
	C518.352234,412.686462 530.705872,411.237030 542.758911,406.497162 
	C552.504089,402.664886 552.540039,402.756348 552.539551,391.769592 
M1104.480469,319.865845 
	C1114.885254,319.865845 1125.290161,319.865845 1135.516357,319.865845 
	C1135.516357,315.284149 1135.516357,311.541046 1135.516357,307.756897 
	C1106.594604,307.756897 1078.023560,307.756897 1049.389893,307.756897 
	C1049.389893,311.837952 1049.389893,315.599457 1049.389893,319.954346 
	C1061.515259,319.954346 1073.397949,319.954346 1085.790649,319.954346 
	C1085.790649,350.257477 1085.790649,379.962830 1085.790649,409.721649 
	C1090.462524,409.721649 1094.605347,409.721649 1099.147461,409.721649 
	C1099.147461,379.823669 1099.147461,350.065979 1099.147461,320.109619 
	C1100.845215,320.013824 1102.155762,319.939911 1104.480469,319.865845 
M690.018677,364.500000 
	C690.018677,349.730591 690.018677,334.961151 690.018677,319.706421 
	C702.387817,319.706421 714.269653,319.706421 726.280518,319.706421 
	C726.280518,315.462738 726.280518,311.712463 726.280518,307.707581 
	C697.456360,307.707581 668.902649,307.707581 640.320801,307.707581 
	C640.320801,311.831696 640.320801,315.718567 640.320801,320.026550 
	C652.390564,320.026550 664.127014,320.026550 676.354065,320.026550 
	C676.354065,350.158386 676.354065,379.862823 676.354065,409.603088 
	C681.116150,409.603088 685.371094,409.603088 689.538269,409.603088 
	C689.740356,409.052704 689.945007,408.754730 689.945740,408.456207 
	C689.981140,394.137482 689.998901,379.818756 690.018677,364.500000 
M879.005432,317.534302 
	C884.744690,326.873871 889.843445,336.691315 896.371582,345.442383 
	C906.469849,358.979187 911.222046,373.486755 909.114502,390.393066 
	C908.326599,396.713806 908.987000,403.215118 908.987000,409.556641 
	C913.936340,409.556641 918.185913,409.556641 922.852112,409.556641 
	C922.852112,395.984497 922.717163,382.700836 922.961243,369.424164 
	C923.012634,366.626923 923.887390,363.507263 925.347168,361.127930 
	C935.338074,344.843079 945.594055,328.720947 955.738281,312.529877 
	C956.641296,311.088654 957.356873,309.529968 958.254456,307.847992 
	C944.549011,306.506317 944.548889,306.506256 938.003845,317.181458 
	C937.916931,317.323181 937.845093,317.474274 937.757629,317.615601 
	C930.625122,329.128998 923.491821,340.641785 916.064575,352.629242 
	C915.156738,351.259491 914.607117,350.483429 914.111450,349.674347 
	C906.127808,336.643433 898.171570,323.595642 890.138245,310.595459 
	C889.407104,309.412140 888.250244,307.722595 887.190430,307.645111 
	C882.685181,307.315704 878.141907,307.505188 872.925049,307.505188 
	C875.209045,311.234009 876.940186,314.060242 879.005432,317.534302 
M821.987000,384.500000 
	C821.987000,392.909637 821.987000,401.319275 821.987000,409.504700 
	C844.041016,409.504700 865.290405,409.504700 886.497559,409.504700 
	C886.497559,405.251556 886.497559,401.351715 886.497559,396.929565 
	C869.424194,396.929565 852.698853,396.929565 835.718750,396.929565 
	C835.718750,366.943665 835.718750,337.489014 835.718750,307.748596 
	C831.042542,307.748596 826.636841,307.748596 822.294067,307.748596 
	C822.153748,308.360474 822.014526,308.684784 822.014282,309.009155 
	C821.998169,333.839447 821.993042,358.669708 821.987000,384.500000 
M312.567383,128.077118 
	C307.916443,128.456238 305.345642,126.194267 303.689667,121.918968 
	C302.031830,117.639030 299.683228,113.626656 297.233582,108.681854 
	C294.486420,114.201279 292.329102,119.201477 289.534943,123.816071 
	C288.443939,125.617905 286.084534,127.269218 284.017914,127.740936 
	C278.893127,128.910690 273.604126,129.361130 267.476471,130.228592 
	C271.693878,134.341736 275.236816,138.051849 279.064758,141.439987 
	C281.578766,143.665115 282.420624,145.921906 281.640442,149.271393 
	C280.478485,154.260132 279.838379,159.370407 278.862854,165.093948 
	C284.118011,162.381012 288.926208,160.142441 293.471344,157.458344 
	C296.076996,155.919601 298.137207,155.807785 300.768555,157.333527 
	C305.294495,159.957779 310.033936,162.213882 315.473785,165.034088 
	C314.422180,158.635513 313.350739,153.260803 312.759827,147.833786 
	C312.578949,146.172318 313.242554,143.951874 314.336609,142.703812 
	C318.023224,138.498276 322.077515,134.615067 326.319489,130.272507 
	C321.796387,129.524460 317.612061,128.832443 312.567383,128.077118 
z"/>
<path fill="#191818" opacity="1.000000" stroke="none" 
	d="
M1285.902588,186.931641 
	C1293.534424,159.018799 1311.076904,140.832428 1338.552734,133.841705 
	C1393.157593,119.948486 1443.046631,161.515793 1432.561523,221.466888 
	C1425.023926,264.563751 1384.517212,287.790955 1344.503418,280.270691 
	C1306.426392,273.114380 1281.893555,241.784332 1283.882324,203.139359 
	C1284.154297,197.854095 1285.172729,192.607254 1285.902588,186.931641 
M1377.710449,159.567108 
	C1375.816650,158.953262 1373.942749,158.267960 1372.026123,157.736450 
	C1347.978394,151.067795 1324.387451,162.414948 1315.721924,184.942673 
	C1311.489380,195.946136 1310.892944,207.385437 1313.164062,218.839844 
	C1321.323242,259.989960 1363.947021,264.298126 1385.526001,249.071594 
	C1398.817017,239.693268 1404.254517,226.258179 1405.427979,210.588776 
	C1407.165161,187.392090 1397.500610,169.209702 1377.710449,159.567108 
z"/>
<path fill="#191818" opacity="1.000000" stroke="none" 
	d="
M621.751953,219.200989 
	C613.569153,161.976486 659.461914,123.364365 710.123596,132.507004 
	C738.818359,137.685379 758.732300,154.301544 767.433777,182.474625 
	C779.243774,220.712204 762.948914,266.429657 716.700623,278.937164 
	C681.314087,288.507202 643.349670,273.625183 627.696838,239.105606 
	C624.922852,232.988159 623.752075,226.143723 621.751953,219.200989 
M662.673218,169.180283 
	C649.675110,183.378662 646.958130,200.356888 650.269348,218.475052 
	C653.402222,235.617142 662.518433,248.657028 679.726562,254.238235 
	C697.418945,259.976471 714.041443,257.689026 727.937012,244.576859 
	C740.366394,232.848328 743.605103,217.533722 742.389587,201.190948 
	C740.983215,182.282333 733.019958,166.888290 714.654724,159.709641 
	C696.131287,152.469147 678.455566,154.885971 662.673218,169.180283 
z"/>
<path fill="#1A1919" opacity="1.000000" stroke="none" 
	d="
M920.073730,227.062256 
	C925.831299,252.963074 908.904602,276.479126 881.308777,280.770386 
	C864.374939,283.403656 848.099792,281.328674 833.630310,271.217773 
	C822.053650,263.128265 815.842957,249.820831 817.379395,236.852066 
	C817.826111,236.739655 818.298584,236.518051 818.771606,236.516922 
	C827.599121,236.496201 836.426636,236.501694 845.572266,236.501694 
	C845.853760,237.383957 846.205383,238.251785 846.407288,239.153137 
	C850.413940,257.036316 873.501953,264.269318 887.382324,251.980835 
	C896.553711,243.861282 894.993225,229.357803 883.540588,224.275940 
	C873.739014,219.926727 863.152344,217.344696 852.907654,213.997131 
	C843.408142,210.893097 833.902039,207.856445 826.806641,200.167480 
	C810.402222,182.390976 815.229797,151.091217 837.046509,138.947128 
	C856.465759,128.137604 877.013611,128.010391 896.961548,137.497498 
	C911.701477,144.507721 918.858582,157.277069 919.689514,173.866638 
	C909.755615,173.866638 899.844238,173.866638 889.965637,173.866638 
	C885.072571,157.766724 869.961853,150.800323 855.194946,157.640411 
	C848.718933,160.640121 845.787964,165.792328 845.566101,172.685623 
	C845.361267,179.051834 848.396973,183.955673 854.038208,186.189133 
	C864.197083,190.211197 874.690735,193.383255 885.017883,196.986832 
	C889.875122,198.681747 894.839417,200.201813 899.459656,202.417480 
	C909.835693,207.393463 917.239685,215.109619 920.073730,227.062256 
z"/>
<path fill="#1A1919" opacity="1.000000" stroke="none" 
	d="
M1049.975220,236.475006 
	C1048.522217,228.125153 1042.692017,224.312790 1035.900879,221.978561 
	C1024.764404,218.150818 1013.314880,215.216583 1002.240479,211.230087 
	C982.851929,204.250702 974.079224,192.270844 974.157898,174.018433 
	C974.238098,155.404480 984.498413,141.299774 1003.066284,134.739990 
	C1017.507690,129.638000 1032.276367,129.557098 1046.660156,134.366211 
	C1065.212524,140.569016 1075.448364,153.774216 1076.662598,173.879120 
	C1066.694824,173.879120 1056.776367,173.879120 1046.867432,173.879120 
	C1044.450684,158.498505 1030.044556,152.355057 1014.091736,156.935471 
	C1006.978271,158.977905 1003.162292,164.137863 1002.561646,171.593307 
	C1001.996460,178.608719 1005.075256,183.886139 1011.331665,186.364670 
	C1021.323730,190.323074 1031.658813,193.410370 1041.818237,196.953995 
	C1046.825195,198.700439 1051.923950,200.303207 1056.706421,202.554459 
	C1084.058716,215.429749 1082.931152,249.353745 1066.951416,265.887726 
	C1053.564941,279.738495 1036.762207,283.150574 1018.417053,281.169861 
	C1001.794189,279.375122 987.550415,273.182953 978.717468,257.988800 
	C974.950928,251.509827 973.516052,244.437393 974.051331,236.717194 
	C983.650513,236.717194 993.104126,236.717194 1002.656006,236.717194 
	C1002.809021,237.118042 1003.036133,237.556000 1003.145264,238.021591 
	C1007.284363,255.677383 1024.338867,263.304840 1040.514526,254.639511 
	C1047.549805,250.870651 1050.595825,244.818970 1049.975220,236.475006 
z"/>
<path fill="#181717" opacity="1.000000" stroke="none" 
	d="
M1627.831665,224.999908 
	C1627.831665,194.184174 1627.831665,163.868439 1627.831665,133.192215 
	C1659.343872,133.192215 1690.705322,133.192215 1722.290649,133.192215 
	C1722.290649,140.733292 1722.290649,148.171432 1722.290649,156.079727 
	C1700.224854,156.079727 1678.323730,156.079727 1656.133057,156.079727 
	C1656.133057,168.784180 1656.133057,181.023026 1656.133057,193.633789 
	C1675.945190,193.633789 1695.706665,193.633789 1715.817139,193.633789 
	C1715.817139,201.539032 1715.817139,209.085327 1715.817139,217.028290 
	C1696.084473,217.028290 1676.336304,217.028290 1656.214600,217.028290 
	C1656.214600,230.310120 1656.214600,243.210007 1656.214600,256.598816 
	C1677.953979,256.598816 1699.855957,256.598816 1722.133789,256.598816 
	C1722.133789,264.612885 1722.133789,272.151062 1722.133789,279.931763 
	C1690.830811,279.931763 1659.588135,279.931763 1627.831665,279.931763 
	C1627.831665,261.708282 1627.831665,243.604111 1627.831665,224.999908 
z"/>
<path fill="#191818" opacity="1.000000" stroke="none" 
	d="
M569.950684,197.874237 
	C560.779541,214.686096 545.789795,220.931656 528.097778,221.907791 
	C518.326538,222.446899 508.501129,222.004364 498.236603,222.004364 
	C498.236603,241.439896 498.236603,260.487885 498.236603,279.852051 
	C488.741974,279.852051 479.707947,279.852051 470.414551,279.852051 
	C470.414551,231.043869 470.414551,182.338745 470.414551,133.269806 
	C471.849609,133.178314 473.283356,133.009094 474.717316,133.007401 
	C490.700745,132.988480 506.684204,132.974487 522.667603,133.002304 
	C534.868652,133.023529 546.517700,135.319397 556.730530,142.375687 
	C574.073059,154.358032 579.527283,177.235703 569.950684,197.874237 
M523.389954,156.514542 
	C515.086182,156.514542 506.782379,156.514542 498.268738,156.514542 
	C498.268738,170.676636 498.268738,184.566116 498.268738,198.213959 
	C508.472351,198.213959 518.468079,198.914795 528.322754,198.035400 
	C540.466370,196.951782 546.368225,189.305222 546.133911,177.054764 
	C545.900513,164.849274 539.607849,158.091309 527.327637,156.854538 
	C526.334595,156.754547 525.343018,156.640015 523.389954,156.514542 
z"/>
<path fill="#191818" opacity="1.000000" stroke="none" 
	d="
M1131.158325,188.999939 
	C1131.158325,170.211823 1131.158325,151.923691 1131.158325,133.313248 
	C1132.677368,133.194199 1133.944946,133.009857 1135.212769,133.008347 
	C1151.528809,132.988876 1167.846191,132.872391 1184.160645,133.031799 
	C1199.035034,133.177124 1212.660767,136.785843 1223.789795,147.545670 
	C1242.266602,165.409683 1241.194580,208.234314 1204.707764,219.010529 
	C1197.496460,221.140366 1189.691284,221.555237 1182.113159,222.063171 
	C1174.673462,222.561844 1167.174316,222.171860 1159.238037,222.171860 
	C1159.238037,241.438568 1159.238037,260.486206 1159.238037,279.851044 
	C1149.743896,279.851044 1140.709961,279.851044 1131.158325,279.851044 
	C1131.158325,249.668976 1131.158325,219.584457 1131.158325,188.999939 
M1159.000977,193.354263 
	C1159.000977,195.104782 1159.000977,196.855286 1159.000977,197.959778 
	C1170.127686,197.959778 1180.634033,198.751465 1190.964355,197.740860 
	C1201.653198,196.695160 1207.036255,188.889328 1206.998901,177.302460 
	C1206.962524,166.024811 1201.576050,158.380844 1190.980591,157.372498 
	C1180.520508,156.376984 1169.891357,157.155060 1159.000977,157.155060 
	C1159.000977,168.825531 1159.000977,180.606461 1159.000977,193.354263 
z"/>
<path fill="#1C1C1C" opacity="1.000000" stroke="none" 
	d="
M275.178253,172.067749 
	C278.907898,170.291824 282.637543,168.515900 286.812775,166.527817 
	C292.717529,174.374680 296.225555,183.442383 297.845551,193.090881 
	C304.595032,233.290497 281.415894,268.467957 242.002716,278.268677 
	C199.144318,288.926117 154.665726,255.698669 152.818314,211.644089 
	C151.168472,172.300629 175.990784,140.833374 214.524689,134.478424 
	C236.318253,130.884262 255.957825,136.748520 273.214417,150.698044 
	C277.091583,153.832169 276.467468,157.007263 275.299530,159.809723 
	C267.580841,155.007050 259.885315,150.218796 251.559052,145.212799 
	C250.643784,145.080048 250.359253,145.165039 250.074707,145.250046 
	C250.313324,145.569229 250.551956,145.888412 250.790588,146.207596 
	C254.274338,152.207260 257.654358,158.271667 261.326019,164.154037 
	C262.095245,165.386414 263.859192,166.490280 265.304413,166.702560 
	C268.044067,167.104965 270.884796,166.818985 274.063995,166.818985 
	C273.902740,168.488068 273.780701,169.750839 273.403625,171.759430 
	C270.463654,172.871750 267.778748,173.238220 265.339752,173.571121 
	C266.856873,183.491501 268.350983,193.261398 269.881836,203.271576 
	C277.123962,203.271576 284.538086,203.271576 293.573181,203.271576 
	C291.231262,194.929184 289.199341,187.196396 286.862366,179.556915 
	C285.521149,175.172653 283.166321,171.770813 277.584595,173.086594 
	C276.900574,173.247849 275.985992,172.431198 275.178253,172.067749 
M201.031158,268.843201 
	C201.325485,268.787384 201.619827,268.731537 201.914169,268.675720 
	C201.673019,268.387299 201.431870,268.098877 201.052841,267.136719 
	C197.540192,261.341248 194.047775,255.533356 190.496231,249.761810 
	C189.859573,248.727234 189.018951,247.059174 188.204117,247.017365 
	C183.211243,246.761261 178.198669,246.889145 172.330383,246.889145 
	C180.401260,257.155701 189.407181,264.222229 201.031158,268.843201 
M197.579971,203.521439 
	C205.859955,203.521439 214.139923,203.521439 222.456329,203.521439 
	C222.456329,193.102875 222.456329,183.248352 222.456329,173.158173 
	C213.599686,173.158173 205.124725,173.060745 196.657181,173.267166 
	C195.439728,173.296844 193.408539,174.611649 193.192734,175.635117 
	C191.288879,184.663803 189.710587,193.761108 187.909973,203.521332 
	C191.681961,203.521332 194.146088,203.521332 197.579971,203.521439 
M222.835815,223.507416 
	C222.835815,219.084473 222.835815,214.661530 222.835815,210.299774 
	C211.135544,210.299774 200.072403,210.299774 187.953369,210.299774 
	C189.662842,219.544632 191.199127,228.329224 192.998505,237.059601 
	C193.261978,238.337967 194.750244,240.320404 195.718201,240.347992 
	C204.645844,240.602280 213.583710,240.497971 222.835815,240.497971 
	C222.835815,234.763931 222.835815,229.632446 222.835815,223.507416 
M248.430481,173.160919 
	C242.013641,173.160919 235.596802,173.160919 229.227386,173.160919 
	C229.227386,183.593613 229.227386,193.346664 229.227386,203.189835 
	C240.508881,203.189835 251.556061,203.189835 263.627716,203.189835 
	C261.850708,192.848969 260.157928,182.998276 258.467468,173.160934 
	C254.712753,173.160934 252.058472,173.160934 248.430481,173.160919 
M258.979492,236.412827 
	C260.518951,227.832581 262.058411,219.252335 263.674683,210.244125 
	C251.446136,210.244125 240.401108,210.244125 229.255478,210.244125 
	C229.255478,220.351166 229.255478,230.235352 229.255478,240.500641 
	C238.129471,240.500641 246.758026,240.625366 255.374207,240.355026 
	C256.554321,240.318008 257.672729,238.314072 258.979492,236.412827 
M160.196152,203.460358 
	C167.458328,203.460358 174.720505,203.460358 181.785095,203.460358 
	C183.356094,193.118637 184.856125,183.243988 186.388245,173.158234 
	C181.162048,173.158234 175.852432,173.039169 170.555847,173.249161 
	C169.360397,173.296555 167.666641,174.196716 167.124786,175.201721 
	C162.440399,183.889771 159.360916,193.072342 160.196152,203.460358 
M184.798111,240.512787 
	C185.433914,239.885162 186.697769,239.151611 186.612427,238.645599 
	C185.021622,229.213242 183.270370,219.807938 181.521652,210.226318 
	C174.418198,210.226318 166.835312,210.226318 157.901596,210.226318 
	C160.433441,218.824844 162.743179,226.865784 165.180695,234.867798 
	C166.482086,239.140045 169.090408,241.331009 173.970306,240.607697 
	C177.221130,240.125824 180.601212,240.515976 184.798111,240.512787 
M270.717346,240.511276 
	C273.541412,240.511276 276.390900,240.273895 279.182953,240.572845 
	C282.492279,240.927170 284.219727,239.693314 285.630432,236.675598 
	C289.528259,228.337494 292.123566,219.745087 292.365814,210.244110 
	C284.669922,210.244110 277.121429,210.244110 269.873535,210.244110 
	C268.326630,220.427505 266.823486,230.322617 265.275787,240.511169 
	C266.834717,240.511169 268.314301,240.511169 270.717346,240.511276 
M217.313705,166.842499 
	C219.066849,166.842499 220.820007,166.842499 222.487839,166.842499 
	C222.487839,157.576126 222.487839,149.053375 222.487839,140.475204 
	C211.171982,142.578735 198.322037,156.157410 197.374084,166.842499 
	C203.710037,166.842499 210.033127,166.842499 217.313705,166.842499 
M252.244431,160.338715 
	C247.159607,150.753983 240.597916,142.905975 229.275543,140.213654 
	C229.275543,149.323273 229.275543,157.900360 229.275543,166.618256 
	C237.926147,166.618256 246.298706,166.618256 255.193069,166.618256 
	C254.237656,164.489273 253.448044,162.729782 252.244431,160.338715 
M209.688431,266.849213 
	C213.701920,269.230591 217.715424,271.611969 222.542435,274.476044 
	C222.542435,264.265198 222.542435,255.711029 222.542435,247.092484 
	C213.842789,247.092484 205.442245,247.092484 196.615677,247.092484 
	C199.563828,254.659515 203.407181,261.120697 209.688431,266.849213 
M229.007294,262.474548 
	C229.007294,265.933472 229.007294,269.392395 229.007294,273.521454 
	C243.189056,269.622528 249.813751,259.258301 255.182663,247.020660 
	C246.277557,247.020660 237.880615,247.020660 229.007294,247.020660 
	C229.007294,251.947220 229.007294,256.715027 229.007294,262.474548 
M184.614716,154.075882 
	C180.619324,158.003891 176.623917,161.931885 172.628510,165.859879 
	C177.905563,166.841766 182.244965,167.023788 186.551895,166.729858 
	C187.829437,166.642654 189.488419,165.496994 190.165253,164.356995 
	C193.956329,157.971771 197.500214,151.439789 201.795990,143.765503 
	C195.804794,147.359772 190.514587,150.533493 184.614716,154.075882 
M278.304260,247.004776 
	C273.005310,247.004776 267.706360,247.004776 263.102478,247.004776 
	C258.826538,254.280624 254.802872,261.127197 250.275940,268.830139 
	C262.126434,264.209564 271.290070,257.266449 278.304260,247.004776 
z"/>
<path fill="#181818" opacity="1.000000" stroke="none" 
	d="
M1510.002563,214.000000 
	C1510.002563,228.467514 1510.002563,242.435013 1510.002563,256.799866 
	C1531.939697,256.799866 1553.665894,256.799866 1575.696167,256.799866 
	C1575.696167,264.731232 1575.696167,272.268066 1575.696167,279.988739 
	C1544.623779,279.988739 1513.706299,279.988739 1482.474731,279.988739 
	C1482.474731,231.181534 1482.474731,182.467224 1482.474731,133.374802 
	C1491.369141,133.374802 1500.411255,133.374802 1510.002563,133.374802 
	C1510.002563,160.008881 1510.002563,186.754440 1510.002563,214.000000 
z"/>
<path fill="#1F1F1F" opacity="1.000000" stroke="none" 
	d="
M305.976990,166.026337 
	C318.314972,168.131607 320.133484,178.196182 321.723175,187.783783 
	C327.679535,223.707291 318.018921,254.711456 290.994843,279.534943 
	C252.835648,314.586731 191.553452,312.340698 155.713181,274.902618 
	C108.344719,225.422333 123.922569,144.889648 186.639893,117.375450 
	C217.849930,103.683556 248.461227,106.746048 278.218750,124.067238 
	C269.449982,126.994606 266.771790,126.950508 259.006165,123.950996 
	C206.780075,103.778442 150.320129,133.537582 138.573135,188.320511 
	C127.321800,240.791931 163.908707,288.418976 213.200836,295.019836 
	C270.604919,302.707031 318.690002,257.438721 314.814362,199.551987 
	C314.039307,187.975418 310.594574,177.071915 305.853729,166.287613 
	C306.022766,165.967896 305.976990,166.026337 305.976990,166.026337 
z"/>
<path fill="#272323" opacity="1.000000" stroke="none" 
	d="
M1034.171143,359.793091 
	C1049.960571,372.548950 1046.173706,396.635712 1027.398926,406.190216 
	C1015.517334,412.236725 1002.936096,412.247711 990.365723,410.495483 
	C982.886902,409.453033 975.600342,406.785095 968.371338,404.409576 
	C966.957947,403.945068 965.452759,401.535522 965.296448,399.898376 
	C964.872803,395.460419 965.151245,390.955444 965.151245,385.737732 
	C966.671082,386.616577 967.776184,387.150299 968.768311,387.845306 
	C981.070496,396.462952 994.648621,400.951843 1009.647766,398.863251 
	C1014.847229,398.139221 1020.246033,395.871307 1024.630005,392.931122 
	C1032.075562,387.937561 1032.390869,372.173401 1020.314880,369.030396 
	C1009.726440,366.274536 998.876770,364.527863 988.275391,361.815735 
	C970.986389,357.392761 962.514099,343.912720 966.955505,327.703308 
	C970.283997,315.555634 979.908875,309.775818 991.239990,307.238129 
	C1006.903931,303.730072 1022.325989,305.892365 1037.174805,311.810730 
	C1038.418945,312.306641 1039.773560,314.212952 1039.881836,315.560028 
	C1040.227661,319.862030 1040.010132,324.209290 1040.010132,328.943848 
	C1039.069214,328.612946 1038.281250,328.510803 1037.703979,328.107147 
	C1026.206177,320.065948 1013.403748,316.596436 999.524597,318.044861 
	C995.214172,318.494690 990.812805,320.206055 986.949158,322.268982 
	C982.025574,324.897827 979.838440,329.641815 980.326782,335.298340 
	C980.832153,341.151459 983.765442,345.577789 989.508667,347.079437 
	C998.336243,349.387482 1007.400818,350.798920 1016.206543,353.177094 
	C1022.231018,354.804108 1027.986084,357.428497 1034.171143,359.793091 
z"/>
<path fill="#272323" opacity="1.000000" stroke="none" 
	d="
M568.442627,409.846802 
	C564.515015,409.848480 561.025391,409.848480 557.075623,409.848480 
	C557.433044,408.375671 557.610352,407.150146 558.024353,406.010651 
	C569.474731,374.492981 580.983154,342.996338 592.362793,311.453247 
	C593.408447,308.554779 594.693237,307.353912 597.985535,307.371338 
	C612.268677,307.446991 612.248474,307.329346 617.084412,320.632874 
	C627.225525,348.530334 637.393005,376.418274 647.540283,404.313507 
	C648.146790,405.980835 648.670715,407.678223 649.233826,409.364105 
	C648.466797,409.617188 648.164246,409.792664 647.853455,409.808685 
	C635.034363,410.471222 635.033813,410.469635 630.743958,398.326599 
	C629.141541,393.790680 627.448242,389.283875 625.978516,384.705292 
	C625.174438,382.200684 624.063660,381.037781 621.100220,381.089996 
	C608.948120,381.304260 596.789246,381.252655 584.634766,381.123260 
	C581.921814,381.094360 580.528564,381.732971 579.640747,384.555847 
	C577.351501,391.834320 574.709900,399.007874 571.992065,406.140656 
	C571.449646,407.563995 569.942810,408.619812 568.442627,409.846802 
M585.902649,368.836334 
	C597.172546,368.836334 608.442505,368.836334 620.233887,368.836334 
	C614.480835,352.759674 608.787537,336.849976 602.698425,319.834259 
	C596.733154,336.719360 591.217590,352.331451 585.902649,368.836334 
z"/>
<path fill="#272323" opacity="1.000000" stroke="none" 
	d="
M730.803772,371.679901 
	C738.202087,351.350952 745.542480,331.417999 752.653320,311.403473 
	C753.715637,308.413483 754.999268,307.147522 758.241150,307.399353 
	C762.872498,307.759064 768.657166,306.031799 771.872803,308.231445 
	C775.026062,310.388275 775.675537,316.309082 777.260803,320.637665 
	C787.484009,348.552094 797.666016,376.481659 807.846558,404.411713 
	C808.407104,405.949554 808.834534,407.535950 809.556763,409.843597 
	C805.051636,409.843597 800.964539,410.068146 796.932251,409.696808 
	C795.827026,409.595032 794.422363,407.882324 793.945007,406.612000 
	C790.794739,398.228607 787.860107,389.764191 784.843689,381.294067 
	C770.313538,381.294067 755.998352,381.294067 741.141846,381.294067 
	C738.476746,388.760773 735.421204,396.276489 733.168640,404.025665 
	C731.822815,408.655457 729.698547,410.633392 724.872437,409.912018 
	C722.448364,409.549683 719.925354,409.848877 716.849976,409.848877 
	C721.565552,396.952393 726.118469,384.500885 730.803772,371.679901 
M769.163208,337.316071 
	C767.239563,331.948334 765.315857,326.580566 762.946411,319.968903 
	C756.829224,337.087372 751.193054,352.859741 745.475098,368.861115 
	C757.477051,368.861115 768.695251,368.861115 780.432861,368.861115 
	C776.672729,358.304230 773.064392,348.173492 769.163208,337.316071 
z"/>
<path fill="#282424" opacity="1.000000" stroke="none" 
	d="
M552.539490,392.217651 
	C552.540039,402.756348 552.504089,402.664886 542.758911,406.497162 
	C530.705872,411.237030 518.352234,412.686462 505.592773,410.367310 
	C485.883820,406.785034 474.280487,394.782196 469.693939,375.603790 
	C467.097412,364.746490 467.047791,353.767975 469.414154,342.923584 
	C474.642456,318.963623 493.145935,305.094879 518.381470,305.619232 
	C529.374268,305.847656 539.747253,308.432159 549.565918,313.218536 
	C550.870850,313.854675 552.291199,315.689575 552.403687,317.071442 
	C552.765015,321.509796 552.538086,325.996002 552.538086,331.581787 
	C550.503906,330.114685 549.113403,329.155762 547.769409,328.135590 
	C536.801697,319.810852 524.536804,316.042786 510.810913,318.043915 
	C497.644073,319.963531 489.271515,327.868286 485.085846,340.177673 
	C481.646759,350.291443 481.179749,360.758911 483.493988,371.182861 
	C488.982635,395.904907 509.013977,403.760742 531.247864,397.256165 
	C538.556396,395.118042 545.164978,390.587311 552.539551,386.929474 
	C552.539551,388.070740 552.539551,389.920166 552.539490,392.217651 
z"/>
<path fill="#2D2929" opacity="1.000000" stroke="none" 
	d="
M1103.973389,319.865906 
	C1102.155762,319.939911 1100.845215,320.013824 1099.147461,320.109619 
	C1099.147461,350.065979 1099.147461,379.823669 1099.147461,409.721649 
	C1094.605347,409.721649 1090.462524,409.721649 1085.790649,409.721649 
	C1085.790649,379.962830 1085.790649,350.257477 1085.790649,319.954346 
	C1073.397949,319.954346 1061.515259,319.954346 1049.389893,319.954346 
	C1049.389893,315.599457 1049.389893,311.837952 1049.389893,307.756897 
	C1078.023560,307.756897 1106.594604,307.756897 1135.516357,307.756897 
	C1135.516357,311.541046 1135.516357,315.284149 1135.516357,319.865845 
	C1125.290161,319.865845 1114.885254,319.865845 1103.973389,319.865906 
z"/>
<path fill="#2B2727" opacity="1.000000" stroke="none" 
	d="
M690.018677,365.000000 
	C689.998901,379.818756 689.981140,394.137482 689.945740,408.456207 
	C689.945007,408.754730 689.740356,409.052704 689.538269,409.603088 
	C685.371094,409.603088 681.116150,409.603088 676.354065,409.603088 
	C676.354065,379.862823 676.354065,350.158386 676.354065,320.026550 
	C664.127014,320.026550 652.390564,320.026550 640.320801,320.026550 
	C640.320801,315.718567 640.320801,311.831696 640.320801,307.707581 
	C668.902649,307.707581 697.456360,307.707581 726.280518,307.707581 
	C726.280518,311.712463 726.280518,315.462738 726.280518,319.706421 
	C714.269653,319.706421 702.387817,319.706421 690.018677,319.706421 
	C690.018677,334.961151 690.018677,349.730591 690.018677,365.000000 
z"/>
<path fill="#282424" opacity="1.000000" stroke="none" 
	d="
M878.838379,317.210388 
	C876.940186,314.060242 875.209045,311.234009 872.925049,307.505188 
	C878.141907,307.505188 882.685181,307.315704 887.190430,307.645111 
	C888.250244,307.722595 889.407104,309.412140 890.138245,310.595459 
	C898.171570,323.595642 906.127808,336.643433 914.111450,349.674347 
	C914.607117,350.483429 915.156738,351.259491 916.064575,352.629242 
	C923.491821,340.641785 930.625122,329.128998 937.757629,317.615601 
	C937.845093,317.474274 937.916931,317.323181 938.003845,317.181458 
	C944.548889,306.506256 944.549011,306.506317 958.254456,307.847992 
	C957.356873,309.529968 956.641296,311.088654 955.738281,312.529877 
	C945.594055,328.720947 935.338074,344.843079 925.347168,361.127930 
	C923.887390,363.507263 923.012634,366.626923 922.961243,369.424164 
	C922.717163,382.700836 922.852112,395.984497 922.852112,409.556641 
	C918.185913,409.556641 913.936340,409.556641 908.987000,409.556641 
	C908.987000,403.215118 908.326599,396.713806 909.114502,390.393066 
	C911.222046,373.486755 906.469849,358.979187 896.371582,345.442383 
	C889.843445,336.691315 884.744690,326.873871 878.838379,317.210388 
z"/>
<path fill="#282424" opacity="1.000000" stroke="none" 
	d="
M821.987000,384.000000 
	C821.993042,358.669708 821.998169,333.839447 822.014282,309.009155 
	C822.014526,308.684784 822.153748,308.360474 822.294067,307.748596 
	C826.636841,307.748596 831.042542,307.748596 835.718750,307.748596 
	C835.718750,337.489014 835.718750,366.943665 835.718750,396.929565 
	C852.698853,396.929565 869.424194,396.929565 886.497559,396.929565 
	C886.497559,401.351715 886.497559,405.251556 886.497559,409.504700 
	C865.290405,409.504700 844.041016,409.504700 821.987000,409.504700 
	C821.987000,401.319275 821.987000,392.909637 821.987000,384.000000 
z"/>
<path fill="#2E2A2A" opacity="1.000000" stroke="none" 
	d="
M312.997559,128.108765 
	C317.612061,128.832443 321.796387,129.524460 326.319489,130.272507 
	C322.077515,134.615067 318.023224,138.498276 314.336609,142.703812 
	C313.242554,143.951874 312.578949,146.172318 312.759827,147.833786 
	C313.350739,153.260803 314.422180,158.635513 315.473785,165.034088 
	C310.033936,162.213882 305.294495,159.957779 300.768555,157.333527 
	C298.137207,155.807785 296.076996,155.919601 293.471344,157.458344 
	C288.926208,160.142441 284.118011,162.381012 278.862854,165.093948 
	C279.838379,159.370407 280.478485,154.260132 281.640442,149.271393 
	C282.420624,145.921906 281.578766,143.665115 279.064758,141.439987 
	C275.236816,138.051849 271.693878,134.341736 267.476471,130.228592 
	C273.604126,129.361130 278.893127,128.910690 284.017914,127.740936 
	C286.084534,127.269218 288.443939,125.617905 289.534943,123.816071 
	C292.329102,119.201477 294.486420,114.201279 297.233582,108.681854 
	C299.683228,113.626656 302.031830,117.639030 303.689667,121.918968 
	C305.345642,126.194267 307.916443,128.456238 312.997559,128.108765 
M307.948669,132.624023 
	C300.079895,132.897583 301.143250,124.610680 296.471436,120.602745 
	C294.779785,130.520081 288.379272,134.146179 278.584625,133.912598 
	C287.395020,139.194626 289.023010,146.352829 285.905670,155.671051 
	C293.580841,148.966476 300.867767,149.488113 308.812408,155.473755 
	C304.535553,145.834412 307.708344,139.313828 316.739838,133.871262 
	C312.935760,133.344070 310.844971,133.054306 307.948669,132.624023 
z"/>
<path fill="#F8F8F8" opacity="1.000000" stroke="none" 
	d="
M274.810547,172.023773 
	C275.985992,172.431198 276.900574,173.247849 277.584595,173.086594 
	C283.166321,171.770813 285.521149,175.172653 286.862366,179.556915 
	C289.199341,187.196396 291.231262,194.929184 293.573181,203.271576 
	C284.538086,203.271576 277.123962,203.271576 269.881836,203.271576 
	C268.350983,193.261398 266.856873,183.491501 265.339752,173.571121 
	C267.778748,173.238220 270.463654,172.871750 273.426636,172.212616 
	C273.950775,171.939896 274.196808,171.959854 274.810547,172.023773 
z"/>
<path fill="#1F1F1F" opacity="1.000000" stroke="none" 
	d="
M306.042114,165.936234 
	C305.859528,165.929611 305.657074,165.970581 305.456207,165.963821 
	C305.423065,165.962692 305.396973,165.752350 305.367584,165.638687 
	C305.545563,165.606033 305.723541,165.573380 305.939270,165.783539 
	C305.976990,166.026337 306.022766,165.967896 306.042114,165.936234 
z"/>
<path fill="#FEFEFE" opacity="1.000000" stroke="none" 
	d="
M1378.059814,159.732666 
	C1397.500610,169.209702 1407.165161,187.392090 1405.427979,210.588776 
	C1404.254517,226.258179 1398.817017,239.693268 1385.526001,249.071594 
	C1363.947021,264.298126 1321.323242,259.989960 1313.164062,218.839844 
	C1310.892944,207.385437 1311.489380,195.946136 1315.721924,184.942673 
	C1324.387451,162.414948 1347.978394,151.067795 1372.026123,157.736450 
	C1373.942749,158.267960 1375.816650,158.953262 1378.059814,159.732666 
z"/>
<path fill="#FEFEFE" opacity="1.000000" stroke="none" 
	d="
M662.926147,168.927399 
	C678.455566,154.885971 696.131287,152.469147 714.654724,159.709641 
	C733.019958,166.888290 740.983215,182.282333 742.389587,201.190948 
	C743.605103,217.533722 740.366394,232.848328 727.937012,244.576859 
	C714.041443,257.689026 697.418945,259.976471 679.726562,254.238235 
	C662.518433,248.657028 653.402222,235.617142 650.269348,218.475052 
	C646.958130,200.356888 649.675110,183.378662 662.926147,168.927399 
z"/>
<path fill="#FDFDFD" opacity="1.000000" stroke="none" 
	d="
M523.870361,156.523407 
	C525.343018,156.640015 526.334595,156.754547 527.327637,156.854538 
	C539.607849,158.091309 545.900513,164.849274 546.133911,177.054764 
	C546.368225,189.305222 540.466370,196.951782 528.322754,198.035400 
	C518.468079,198.914795 508.472351,198.213959 498.268738,198.213959 
	C498.268738,184.566116 498.268738,170.676636 498.268738,156.514542 
	C506.782379,156.514542 515.086182,156.514542 523.870361,156.523407 
z"/>
<path fill="#FDFDFD" opacity="1.000000" stroke="none" 
	d="
M1159.000977,192.870819 
	C1159.000977,180.606461 1159.000977,168.825531 1159.000977,157.155060 
	C1169.891357,157.155060 1180.520508,156.376984 1190.980591,157.372498 
	C1201.576050,158.380844 1206.962524,166.024811 1206.998901,177.302460 
	C1207.036255,188.889328 1201.653198,196.695160 1190.964355,197.740860 
	C1180.634033,198.751465 1170.127686,197.959778 1159.000977,197.959778 
	C1159.000977,196.855286 1159.000977,195.104782 1159.000977,192.870819 
z"/>
<path fill="#F7F7F7" opacity="1.000000" stroke="none" 
	d="
M197.095093,203.521393 
	C194.146088,203.521332 191.681961,203.521332 187.909973,203.521332 
	C189.710587,193.761108 191.288879,184.663803 193.192734,175.635117 
	C193.408539,174.611649 195.439728,173.296844 196.657181,173.267166 
	C205.124725,173.060745 213.599686,173.158173 222.456329,173.158173 
	C222.456329,183.248352 222.456329,193.102875 222.456329,203.521439 
	C214.139923,203.521439 205.859955,203.521439 197.095093,203.521393 
z"/>
<path fill="#F9F9F9" opacity="1.000000" stroke="none" 
	d="
M222.835815,224.004181 
	C222.835815,229.632446 222.835815,234.763931 222.835815,240.497971 
	C213.583710,240.497971 204.645844,240.602280 195.718201,240.347992 
	C194.750244,240.320404 193.261978,238.337967 192.998505,237.059601 
	C191.199127,228.329224 189.662842,219.544632 187.953369,210.299774 
	C200.072403,210.299774 211.135544,210.299774 222.835815,210.299774 
	C222.835815,214.661530 222.835815,219.084473 222.835815,224.004181 
z"/>
<path fill="#F8F8F8" opacity="1.000000" stroke="none" 
	d="
M248.917328,173.160919 
	C252.058472,173.160934 254.712753,173.160934 258.467468,173.160934 
	C260.157928,182.998276 261.850708,192.848969 263.627716,203.189835 
	C251.556061,203.189835 240.508881,203.189835 229.227386,203.189835 
	C229.227386,193.346664 229.227386,183.593613 229.227386,173.160919 
	C235.596802,173.160919 242.013641,173.160919 248.917328,173.160919 
z"/>
<path fill="#FAFAFA" opacity="1.000000" stroke="none" 
	d="
M258.899597,236.816803 
	C257.672729,238.314072 256.554321,240.318008 255.374207,240.355026 
	C246.758026,240.625366 238.129471,240.500641 229.255478,240.500641 
	C229.255478,230.235352 229.255478,220.351166 229.255478,210.244125 
	C240.401108,210.244125 251.446136,210.244125 263.674683,210.244125 
	C262.058411,219.252335 260.518951,227.832581 258.899597,236.816803 
z"/>
<path fill="#F7F7F7" opacity="1.000000" stroke="none" 
	d="
M159.802505,203.276382 
	C159.360916,193.072342 162.440399,183.889771 167.124786,175.201721 
	C167.666641,174.196716 169.360397,173.296555 170.555847,173.249161 
	C175.852432,173.039169 181.162048,173.158234 186.388245,173.158234 
	C184.856125,183.243988 183.356094,193.118637 181.785095,203.460358 
	C174.720505,203.460358 167.458328,203.460358 159.802505,203.276382 
z"/>
<path fill="#F8F8F8" opacity="1.000000" stroke="none" 
	d="
M184.360779,240.514313 
	C180.601212,240.515976 177.221130,240.125824 173.970306,240.607697 
	C169.090408,241.331009 166.482086,239.140045 165.180695,234.867798 
	C162.743179,226.865784 160.433441,218.824844 157.901596,210.226318 
	C166.835312,210.226318 174.418198,210.226318 181.521652,210.226318 
	C183.270370,219.807938 185.021622,229.213242 186.612427,238.645599 
	C186.697769,239.151611 185.433914,239.885162 184.360779,240.514313 
z"/>
<path fill="#F9F9F9" opacity="1.000000" stroke="none" 
	d="
M270.255615,240.511230 
	C268.314301,240.511169 266.834717,240.511169 265.275787,240.511169 
	C266.823486,230.322617 268.326630,220.427505 269.873535,210.244110 
	C277.121429,210.244110 284.669922,210.244110 292.365814,210.244110 
	C292.123566,219.745087 289.528259,228.337494 285.630432,236.675598 
	C284.219727,239.693314 282.492279,240.927170 279.182953,240.572845 
	C276.390900,240.273895 273.541412,240.511276 270.255615,240.511230 
z"/>
<path fill="#F7F7F7" opacity="1.000000" stroke="none" 
	d="
M216.834961,166.842499 
	C210.033127,166.842499 203.710037,166.842499 197.374084,166.842499 
	C198.322037,156.157410 211.171982,142.578735 222.487839,140.475204 
	C222.487839,149.053375 222.487839,157.576126 222.487839,166.842499 
	C220.820007,166.842499 219.066849,166.842499 216.834961,166.842499 
z"/>
<path fill="#F9F9F9" opacity="1.000000" stroke="none" 
	d="
M252.451447,160.654510 
	C253.448044,162.729782 254.237656,164.489273 255.193069,166.618256 
	C246.298706,166.618256 237.926147,166.618256 229.275543,166.618256 
	C229.275543,157.900360 229.275543,149.323273 229.275543,140.213654 
	C240.597916,142.905975 247.159607,150.753983 252.451447,160.654510 
z"/>
<path fill="#F8F8F8" opacity="1.000000" stroke="none" 
	d="
M209.429626,266.602905 
	C203.407181,261.120697 199.563828,254.659515 196.615677,247.092484 
	C205.442245,247.092484 213.842789,247.092484 222.542435,247.092484 
	C222.542435,255.711029 222.542435,264.265198 222.542435,274.476044 
	C217.715424,271.611969 213.701920,269.230591 209.429626,266.602905 
z"/>
<path fill="#FDFDFD" opacity="1.000000" stroke="none" 
	d="
M229.007294,261.978699 
	C229.007294,256.715027 229.007294,251.947220 229.007294,247.020660 
	C237.880615,247.020660 246.277557,247.020660 255.182663,247.020660 
	C249.813751,259.258301 243.189056,269.622528 229.007294,273.521454 
	C229.007294,269.392395 229.007294,265.933472 229.007294,261.978699 
z"/>
<path fill="#F7F7F7" opacity="1.000000" stroke="none" 
	d="
M184.919556,153.891541 
	C190.514587,150.533493 195.804794,147.359772 201.795990,143.765503 
	C197.500214,151.439789 193.956329,157.971771 190.165253,164.356995 
	C189.488419,165.496994 187.829437,166.642654 186.551895,166.729858 
	C182.244965,167.023788 177.905563,166.841766 172.628510,165.859879 
	C176.623917,161.931885 180.619324,158.003891 184.919556,153.891541 
z"/>
<path fill="#F7F7F7" opacity="1.000000" stroke="none" 
	d="
M278.448425,247.369629 
	C271.290070,257.266449 262.126434,264.209564 250.275940,268.830139 
	C254.802872,261.127197 258.826538,254.280624 263.102478,247.004776 
	C267.706360,247.004776 273.005310,247.004776 278.448425,247.369629 
z"/>
<path fill="#F7F7F7" opacity="1.000000" stroke="none" 
	d="
M200.559769,268.465240 
	C189.407181,264.222229 180.401260,257.155701 172.330383,246.889145 
	C178.198669,246.889145 183.211243,246.761261 188.204117,247.017365 
	C189.018951,247.059174 189.859573,248.727234 190.496231,249.761810 
	C194.047775,255.533356 197.540192,261.341248 200.962463,267.635742 
	C200.872070,268.134796 200.559769,268.465240 200.559769,268.465240 
z"/>
<path fill="#F7F7F7" opacity="1.000000" stroke="none" 
	d="
M201.031403,267.972626 
	C201.431870,268.098877 201.673019,268.387299 201.914169,268.675720 
	C201.619827,268.731537 201.325485,268.787384 200.795471,268.654236 
	C200.559769,268.465240 200.872070,268.134796 201.031403,267.972626 
z"/>
<path fill="#FFFFFF" opacity="1.000000" stroke="none" 
	d="
M250.977417,145.984283 
	C250.551956,145.888412 250.313324,145.569229 250.074707,145.250046 
	C250.359253,145.165039 250.643784,145.080048 251.202148,145.132080 
	C251.372070,145.433075 251.268158,145.597015 250.977417,145.984283 
z"/>
<path fill="#FCFCFC" opacity="1.000000" stroke="none" 
	d="
M585.802368,368.389923 
	C591.217590,352.331451 596.733154,336.719360 602.698425,319.834259 
	C608.787537,336.849976 614.480835,352.759674 620.233887,368.836334 
	C608.442505,368.836334 597.172546,368.836334 585.802368,368.389923 
z"/>
<path fill="#FCFCFC" opacity="1.000000" stroke="none" 
	d="
M769.309631,337.679413 
	C773.064392,348.173492 776.672729,358.304230 780.432861,368.861115 
	C768.695251,368.861115 757.477051,368.861115 745.475098,368.861115 
	C751.193054,352.859741 756.829224,337.087372 762.946411,319.968903 
	C765.315857,326.580566 767.239563,331.948334 769.309631,337.679413 
z"/>
<path fill="#F9F9F9" opacity="1.000000" stroke="none" 
	d="
M308.351410,132.694290 
	C310.844971,133.054306 312.935760,133.344070 316.739838,133.871262 
	C307.708344,139.313828 304.535553,145.834412 308.812408,155.473755 
	C300.867767,149.488113 293.580841,148.966476 285.905670,155.671051 
	C289.023010,146.352829 287.395020,139.194626 278.584625,133.912598 
	C288.379272,134.146179 294.779785,130.520081 296.471436,120.602745 
	C301.143250,124.610680 300.079895,132.897583 308.351410,132.694290 
z"/>
</svg>